<?xml version="1.0" encoding="UTF-8"?>
<svg xmlns="http://www.w3.org/2000/svg" viewBox="0 0 512 512">
  <defs>
    <linearGradient id="shadow" x1="0" y1="0" x2="1" y2="1">
      <stop offset="0" stop-color="#0b0b0d" />
      <stop offset="1" stop-color="#16181d" />
    </linearGradient>
  </defs>
  <rect width="512" height="512" fill="none" />
  <g transform="translate(256 256)">
    <path
      d="M-146-182c50-44 146-74 216-52 95 31 150 127 124 220-16 58-60 108-116 132-66 28-150 24-212-12"
      fill="none"
      stroke="#111418"
      stroke-linecap="round"
      stroke-linejoin="round"
      stroke-width="36"
    />
    <path
      d="M-178-40c22-78 94-138 174-150 60-9 123 9 170 48"
      fill="none"
      stroke="url(#shadow)"
      stroke-linecap="round"
      stroke-linejoin="round"
      stroke-width="28"
      opacity=".9"
    />
    <path
      d="M-208 6c36 96 146 154 248 131 46-11 90-39 118-79"
      fill="none"
      stroke="#050608"
      stroke-linecap="round"
      stroke-linejoin="round"
      stroke-width="28"
      opacity=".85"
    />
    <path
      d="M-194-62c70-70 196-90 278-24"
      fill="none"
      stroke="#1f7a96"
      stroke-linecap="round"
      stroke-linejoin="round"
      stroke-width="32"
    />
    <path
      d="M-214 42c62 62 176 72 256 18"
      fill="none"
      stroke="#1f7a96"
      stroke-linecap="round"
      stroke-linejoin="round"
      stroke-width="28"
      opacity=".9"
    />
    <circle cx="-58" cy="-68" r="34" fill="#1f7a96" />
    <circle cx="30" cy="-10" r="28" fill="#1f7a96" />
    <circle cx="-10" cy="64" r="26" fill="#1f7a96" />
    <path
      d="M-58-68c24 14 44 32 70 44"
      fill="none"
      stroke="#0d3a4b"
      stroke-linecap="round"
      stroke-width="14"
      opacity=".7"
    />
    <path
      d="M-10 64c22-12 44-24 66-44"
      fill="none"
      stroke="#0d3a4b"
      stroke-linecap="round"
      stroke-width="14"
      opacity=".7"
    />
  </g>
</svg>
