<?xml version="1.0" encoding="UTF-8"?>
<svg xmlns="http://www.w3.org/2000/svg" viewBox="0 0 512 512">
  <g fill="none" stroke-linecap="round" stroke-linejoin="round">
    <path
      d="M116 126c58-62 182-92 270-50 74 36 108 126 70 198-30 58-96 90-160 84-40-4-78-22-110-46"
      stroke="#0f1116"
      stroke-width="28"
    />
    <path
      d="M100 274c32 92 140 158 234 142 52-8 100-40 130-84"
      stroke="#0f1116"
      stroke-width="26"
    />
    <path
      d="M96 216c44-74 154-114 248-88"
      stroke="#1f6f8b"
      stroke-width="32"
    />
    <path
      d="M88 320c48 60 150 84 220 42"
      stroke="#1f6f8b"
      stroke-width="30"
    />
    <circle cx="160" cy="182" r="28" fill="#1f6f8b" />
    <circle cx="252" cy="236" r="24" fill="#1f6f8b" />
    <circle cx="198" cy="314" r="26" fill="#1f6f8b" />
    <path
      d="M160 182c32 20 60 38 92 52"
      stroke="#124357"
      stroke-width="14"
    />
    <path
      d="M198 314c26-14 52-30 78-54"
      stroke="#124357"
      stroke-width="14"
    />
  </g>
</svg>
